<svg width="1440" height="718" xmlns="http://www.w3.org/2000/svg"><g><path d="M-25,-66L-127,331L-24,113Z" fill="#ffffff" stroke="#ffffff"/><path d="M-25,-66L-24,113L45,31Z" fill="#ffffff" stroke="#ffffff"/><path d="M-25,-66L45,31L24,-70Z" fill="#ffffff" stroke="#ffffff"/><path d="M-25,-66L24,-70L666,-128Z" fill="#f3f3f3" stroke="#f3f3f3"/><path d="M24,-70L45,31L220,-68Z" fill="#fbfbfb" stroke="#fbfbfb"/><path d="M24,-70L220,-68L666,-128Z" fill="#ededed" stroke="#ededed"/><path d="M220,-68L45,31L266,26Z" fill="#f7f7f7" stroke="#f7f7f7"/><path d="M220,-68L266,26L347,-59Z" fill="#efefef" stroke="#efefef"/><path d="M220,-68L347,-59L666,-128Z" fill="#e4e4e4" stroke="#e4e4e4"/><path d="M347,-59L266,26L384,43Z" fill="#ebebeb" stroke="#ebebeb"/><path d="M347,-59L384,43L518,-59Z" fill="#e4e4e4" stroke="#e4e4e4"/><path d="M347,-59L518,-59L666,-128Z" fill="#dbdbdb" stroke="#dbdbdb"/><path d="M518,-59L384,43L551,37Z" fill="#dedede" stroke="#dedede"/><path d="M518,-59L551,37L666,-128Z" fill="#d2d2d2" stroke="#d2d2d2"/><path d="M666,-128L551,37L696,58Z" fill="#cbcbcb" stroke="#cbcbcb"/><path d="M666,-128L696,58L798,-97Z" fill="#c2c2c2" stroke="#c2c2c2"/><path d="M666,-128L798,-97L1118,-70Z" fill="#b3b3b3" stroke="#b3b3b3"/><path d="M666,-128L1118,-70L1456,-99Z" fill="#989898" stroke="#989898"/><path d="M798,-97L696,58L794,25Z" fill="#bdbdbd" stroke="#bdbdbd"/><path d="M798,-97L794,25L964,-29Z" fill="#b4b4b4" stroke="#b4b4b4"/><path d="M798,-97L964,-29L1118,-70Z" fill="#a9a9a9" stroke="#a9a9a9"/><path d="M964,-29L794,25L989,105Z" fill="#adadad" stroke="#adadad"/><path d="M964,-29L989,105L1118,-70Z" fill="#a0a0a0" stroke="#a0a0a0"/><path d="M1118,-70L989,105L1171,89Z" fill="#969696" stroke="#969696"/><path d="M1118,-70L1171,89L1230,-63Z" fill="#8c8c8c" stroke="#8c8c8c"/><path d="M1118,-70L1230,-63L1456,-99Z" fill="#818181" stroke="#818181"/><path d="M1230,-63L1171,89L1227,84Z" fill="#888888" stroke="#888888"/><path d="M1230,-63L1227,84L1448,87Z" fill="#808080" stroke="#808080"/><path d="M1230,-63L1448,87L1456,-99Z" fill="#808080" stroke="#808080"/><path d="M1456,-99L1448,87L1586,-40Z" fill="#808080" stroke="#808080"/><path d="M1586,-40L1448,87L1553,88Z" fill="#808080" stroke="#808080"/><path d="M1586,-40L1553,88L1631,413Z" fill="#808080" stroke="#808080"/><path d="M-24,113L-127,331L-34,188Z" fill="#f6f6f6" stroke="#f6f6f6"/><path d="M-24,113L-34,188L90,196Z" fill="#fefefe" stroke="#fefefe"/><path d="M-24,113L90,196L45,31Z" fill="#fefefe" stroke="#fefefe"/><path d="M45,31L90,196L266,26Z" fill="#f9f9f9" stroke="#f9f9f9"/><path d="M266,26L90,196L273,241Z" fill="#f4f4f4" stroke="#f4f4f4"/><path d="M266,26L273,241L384,43Z" fill="#ededed" stroke="#ededed"/><path d="M384,43L273,241L411,235Z" fill="#e7e7e7" stroke="#e7e7e7"/><path d="M384,43L411,235L506,219Z" fill="#e1e1e1" stroke="#e1e1e1"/><path d="M384,43L506,219L551,37Z" fill="#dedede" stroke="#dedede"/><path d="M551,37L506,219L666,180Z" fill="#d3d3d3" stroke="#d3d3d3"/><path d="M551,37L666,180L696,58Z" fill="#cbcbcb" stroke="#cbcbcb"/><path d="M696,58L666,180L794,25Z" fill="#c2c2c2" stroke="#c2c2c2"/><path d="M794,25L666,180L872,281Z" fill="#bbbbbb" stroke="#bbbbbb"/><path d="M794,25L872,281L989,105Z" fill="#b0b0b0" stroke="#b0b0b0"/><path d="M989,105L872,281L1028,239Z" fill="#9f9f9f" stroke="#9f9f9f"/><path d="M989,105L1028,239L1129,184Z" fill="#999999" stroke="#999999"/><path d="M989,105L1129,184L1171,89Z" fill="#969696" stroke="#969696"/><path d="M1171,89L1129,184L1223,179Z" fill="#8c8c8c" stroke="#8c8c8c"/><path d="M1171,89L1223,179L1227,84Z" fill="#888888" stroke="#888888"/><path d="M1227,84L1223,179L1448,87Z" fill="#808080" stroke="#808080"/><path d="M1448,87L1223,179L1410,235Z" fill="#7e7e7e" stroke="#7e7e7e"/><path d="M1448,87L1410,235L1517,238Z" fill="#7b7b7b" stroke="#7b7b7b"/><path d="M1448,87L1517,238L1553,88Z" fill="#808080" stroke="#808080"/><path d="M1553,88L1517,238L1631,413Z" fill="#6f6f6f" stroke="#6f6f6f"/><path d="M-34,188L-127,331L118,362Z" fill="#e1e1e1" stroke="#e1e1e1"/><path d="M-34,188L118,362L90,196Z" fill="#ebebeb" stroke="#ebebeb"/><path d="M90,196L118,362L273,241Z" fill="#e1e1e1" stroke="#e1e1e1"/><path d="M273,241L118,362L275,322Z" fill="#d0d0d0" stroke="#d0d0d0"/><path d="M273,241L275,322L411,235Z" fill="#d6d6d6" stroke="#d6d6d6"/><path d="M411,235L275,322L357,398Z" fill="#c4c4c4" stroke="#c4c4c4"/><path d="M411,235L357,398L565,386Z" fill="#b6b6b6" stroke="#b6b6b6"/><path d="M411,235L565,386L506,219Z" fill="#c2c2c2" stroke="#c2c2c2"/><path d="M506,219L565,386L623,362Z" fill="#adadad" stroke="#adadad"/><path d="M506,219L623,362L666,180Z" fill="#bdbdbd" stroke="#bdbdbd"/><path d="M666,180L623,362L872,281Z" fill="#a9a9a9" stroke="#a9a9a9"/><path d="M872,281L623,362L857,380Z" fill="#8f8f8f" stroke="#8f8f8f"/><path d="M872,281L857,380L933,385Z" fill="#828282" stroke="#828282"/><path d="M872,281L933,385L1028,239Z" fill="#898989" stroke="#898989"/><path d="M1028,239L933,385L1174,322Z" fill="#787878" stroke="#787878"/><path d="M1028,239L1174,322L1129,184Z" fill="#828282" stroke="#828282"/><path d="M1129,184L1174,322L1223,179Z" fill="#7f7f7f" stroke="#7f7f7f"/><path d="M1223,179L1174,322L1269,349Z" fill="#6b6b6b" stroke="#6b6b6b"/><path d="M1223,179L1269,349L1410,235Z" fill="#6c6c6c" stroke="#6c6c6c"/><path d="M1410,235L1269,349L1435,422Z" fill="#555555" stroke="#555555"/><path d="M1410,235L1435,422L1517,238Z" fill="#606060" stroke="#606060"/><path d="M1517,238L1435,422L1631,413Z" fill="#505050" stroke="#505050"/><path d="M-127,331L-101,848L-101,557Z" fill="#949494" stroke="#949494"/><path d="M-127,331L-101,557L22,509Z" fill="#b4b4b4" stroke="#b4b4b4"/><path d="M-127,331L22,509L118,362Z" fill="#c4c4c4" stroke="#c4c4c4"/><path d="M118,362L22,509L206,498Z" fill="#b1b1b1" stroke="#b1b1b1"/><path d="M118,362L206,498L275,322Z" fill="#bbbbbb" stroke="#bbbbbb"/><path d="M275,322L206,498L357,398Z" fill="#b3b3b3" stroke="#b3b3b3"/><path d="M357,398L206,498L319,580Z" fill="#9b9b9b" stroke="#9b9b9b"/><path d="M357,398L319,580L472,478Z" fill="#969696" stroke="#969696"/><path d="M357,398L472,478L565,386Z" fill="#9f9f9f" stroke="#9f9f9f"/><path d="M565,386L472,478L698,475Z" fill="#8c8c8c" stroke="#8c8c8c"/><path d="M565,386L698,475L623,362Z" fill="#8f8f8f" stroke="#8f8f8f"/><path d="M623,362L698,475L857,380Z" fill="#858585" stroke="#858585"/><path d="M857,380L698,475L880,479Z" fill="#727272" stroke="#727272"/><path d="M857,380L880,479L933,385Z" fill="#717171" stroke="#717171"/><path d="M933,385L880,479L942,498Z" fill="#656565" stroke="#656565"/><path d="M933,385L942,498L1084,489Z" fill="#5c5c5c" stroke="#5c5c5c"/><path d="M933,385L1084,489L1174,322Z" fill="#5f5f5f" stroke="#5f5f5f"/><path d="M1174,322L1084,489L1278,519Z" fill="#454545" stroke="#454545"/><path d="M1174,322L1278,519L1269,349Z" fill="#4a4a4a" stroke="#4a4a4a"/><path d="M1269,349L1278,519L1435,422Z" fill="#3d3d3d" stroke="#3d3d3d"/><path d="M1435,422L1278,519L1431,559Z" fill="#2a2a2a" stroke="#2a2a2a"/><path d="M1435,422L1431,559L1581,498Z" fill="#2c2c2c" stroke="#2c2c2c"/><path d="M1435,422L1581,498L1631,413Z" fill="#3a3a3a" stroke="#3a3a3a"/><path d="M1631,413L1581,498L1553,664Z" fill="#222222" stroke="#222222"/><path d="M1631,413L1553,664L1515,849Z" fill="#0f0f0f" stroke="#0f0f0f"/><path d="M-101,557L-101,848L-53,645Z" fill="#8b8b8b" stroke="#8b8b8b"/><path d="M-101,557L-53,645L22,509Z" fill="#959595" stroke="#959595"/><path d="M22,509L-53,645L72,702Z" fill="#909090" stroke="#909090"/><path d="M22,509L72,702L206,498Z" fill="#909090" stroke="#909090"/><path d="M206,498L72,702L229,652Z" fill="#898989" stroke="#898989"/><path d="M206,498L229,652L319,580Z" fill="#868686" stroke="#868686"/><path d="M319,580L229,652L357,621Z" fill="#7f7f7f" stroke="#7f7f7f"/><path d="M319,580L357,621L472,478Z" fill="#7d7d7d" stroke="#7d7d7d"/><path d="M472,478L357,621L496,732Z" fill="#747474" stroke="#747474"/><path d="M472,478L496,732L679,631Z" fill="#676767" stroke="#676767"/><path d="M472,478L679,631L698,475Z" fill="#6f6f6f" stroke="#6f6f6f"/><path d="M698,475L679,631L880,479Z" fill="#5f5f5f" stroke="#5f5f5f"/><path d="M880,479L679,631L871,660Z" fill="#4c4c4c" stroke="#4c4c4c"/><path d="M880,479L871,660L942,498Z" fill="#4a4a4a" stroke="#4a4a4a"/><path d="M942,498L871,660L946,645Z" fill="#404040" stroke="#404040"/><path d="M942,498L946,645L1084,489Z" fill="#404040" stroke="#404040"/><path d="M1084,489L946,645L1105,695Z" fill="#2f2f2f" stroke="#2f2f2f"/><path d="M1084,489L1105,695L1278,519Z" fill="#242424" stroke="#242424"/><path d="M1278,519L1105,695L1216,713Z" fill="#181818" stroke="#181818"/><path d="M1278,519L1216,713L1401,663Z" fill="#101010" stroke="#101010"/><path d="M1278,519L1401,663L1431,559Z" fill="#141414" stroke="#141414"/><path d="M1431,559L1401,663L1553,664Z" fill="#101010" stroke="#101010"/><path d="M1431,559L1553,664L1581,498Z" fill="#151515" stroke="#151515"/><path d="M-53,645L-101,848L80,778Z" fill="#848484" stroke="#848484"/><path d="M-53,645L80,778L72,702Z" fill="#878787" stroke="#878787"/><path d="M72,702L80,778L229,652Z" fill="#828282" stroke="#828282"/><path d="M229,652L80,778L265,812Z" fill="#7b7b7b" stroke="#7b7b7b"/><path d="M229,652L265,812L357,621Z" fill="#797979" stroke="#797979"/><path d="M357,621L265,812L412,840Z" fill="#6f6f6f" stroke="#6f6f6f"/><path d="M357,621L412,840L496,732Z" fill="#6b6b6b" stroke="#6b6b6b"/><path d="M496,732L412,840L525,883Z" fill="#5f5f5f" stroke="#5f5f5f"/><path d="M496,732L525,883L707,842Z" fill="#535353" stroke="#535353"/><path d="M496,732L707,842L679,631Z" fill="#535353" stroke="#535353"/><path d="M679,631L707,842L849,798Z" fill="#444444" stroke="#444444"/><path d="M679,631L849,798L871,660Z" fill="#444444" stroke="#444444"/><path d="M871,660L849,798L925,776Z" fill="#373737" stroke="#373737"/><path d="M871,660L925,776L946,645Z" fill="#383838" stroke="#383838"/><path d="M946,645L925,776L1105,695Z" fill="#2e2e2e" stroke="#2e2e2e"/><path d="M1105,695L925,776L1134,807Z" fill="#202020" stroke="#202020"/><path d="M1105,695L1134,807L1216,713Z" fill="#151515" stroke="#151515"/><path d="M1216,713L1134,807L1232,792Z" fill="#0e0e0e" stroke="#0e0e0e"/><path d="M1216,713L1232,792L1401,663Z" fill="#080808" stroke="#080808"/><path d="M1401,663L1232,792L1450,874Z" fill="#030303" stroke="#030303"/><path d="M1401,663L1450,874L1515,849Z" fill="#010101" stroke="#010101"/><path d="M1401,663L1515,849L1553,664Z" fill="#080808" stroke="#080808"/><path d="M-101,848L525,883L265,812Z" fill="#737373" stroke="#737373"/><path d="M-101,848L265,812L80,778Z" fill="#7c7c7c" stroke="#7c7c7c"/><path d="M265,812L525,883L412,840Z" fill="#666666" stroke="#666666"/><path d="M525,883L1450,874L707,842Z" fill="#303030" stroke="#303030"/><path d="M707,842L1450,874L1134,807Z" fill="#161616" stroke="#161616"/><path d="M707,842L1134,807L849,798Z" fill="#303030" stroke="#303030"/><path d="M849,798L1134,807L925,776Z" fill="#292929" stroke="#292929"/><path d="M1134,807L1450,874L1232,792Z" fill="#010101" stroke="#010101"/></g><filter id="noise"><feTurbulence type="fractalNoise" in="fillPaint" fill="#F00" baseFrequency="0.7" numOctaves="3" stitchTiles="stitch"/><feComponentTransfer><feFuncR type="linear" slope="2" intercept="-.5"/><feFuncG type="linear" slope="2" intercept="-.5"/><feFuncB type="linear" slope="2" intercept="-.5"/></feComponentTransfer><feColorMatrix type="matrix" values="0.3333 0.3333 0.3333 0 0 
 0.3333 0.3333 0.3333 0 0 
 0.3333 0.3333 0.3333 0 0 
 0 0 0 1 0"/></filter><rect opacity="0.20000000000000007" width="100%" height="100%" filter="url(#noise)"/></svg>